<?xml version="1.0" encoding="UTF-8" standalone="no"?>
<svg
   xmlns:dc="http://purl.org/dc/elements/1.1/"
   xmlns:cc="http://creativecommons.org/ns#"
   xmlns:rdf="http://www.w3.org/1999/02/22-rdf-syntax-ns#"
   xmlns:svg="http://www.w3.org/2000/svg"
   xmlns="http://www.w3.org/2000/svg"
   xmlns:xlink="http://www.w3.org/1999/xlink"
   xmlns:sodipodi="http://sodipodi.sourceforge.net/DTD/sodipodi-0.dtd"
   xmlns:inkscape="http://www.inkscape.org/namespaces/inkscape"
   width="135"
   height="26"
   viewBox="0 0 35.718751 6.8791665"
   version="1.1"
   id="svg165"
   inkscape:version="1.0.1 (3bc2e813f5, 2020-09-07)"
   sodipodi:docname="logo_unicesumar.svg">
  <defs
     id="defs159">
    <radialGradient
       fx="0"
       fy="0"
       cx="0"
       cy="0"
       r="0.91000003"
       gradientUnits="userSpaceOnUse"
       gradientTransform="matrix(11.72948,0,0,11.72948,64.3547,552.2669)"
       spreadMethod="pad"
       id="radialGradient270-0-0">
      <stop
         style="stop-opacity:1;stop-color:#99def9"
         offset="0"
         id="stop264-0-1" />
      <stop
         style="stop-opacity:1;stop-color:#0994dc"
         offset="0.37"
         id="stop266-9-0" />
      <stop
         style="stop-opacity:1;stop-color:#0c487c"
         offset="1"
         id="stop268-90-0" />
    </radialGradient>
    <linearGradient
       inkscape:collect="always"
       xlink:href="#linearGradient292"
       id="linearGradient1447"
       gradientUnits="userSpaceOnUse"
       gradientTransform="matrix(-11.3986,64.00468,-65.85466,-11.72806,92.046,534.9832)"
       x1="0.23999999"
       y1="0"
       x2="0.75999999"
       y2="0"
       spreadMethod="pad" />
    <linearGradient
       x1="0.23999999"
       y1="0"
       x2="0.75999999"
       y2="0"
       gradientUnits="userSpaceOnUse"
       gradientTransform="matrix(-11.3986,64.00468,-65.85466,-11.72806,92.046,534.9832)"
       spreadMethod="pad"
       id="linearGradient292">
      <stop
         style="stop-opacity:1;stop-color:#e9e9e9"
         offset="0"
         id="stop288" />
      <stop
         style="stop-opacity:1;stop-color:#ffffff"
         offset="1"
         id="stop290" />
    </linearGradient>
  </defs>
  <sodipodi:namedview
     id="base"
     pagecolor="#ffffff"
     bordercolor="#666666"
     borderopacity="1.0"
     inkscape:pageopacity="0.0"
     inkscape:pageshadow="2"
     inkscape:zoom="5.6"
     inkscape:cx="62.804515"
     inkscape:cy="44.251505"
     inkscape:document-units="mm"
     inkscape:current-layer="layer1"
     inkscape:document-rotation="0"
     showgrid="false"
     units="px"
     borderlayer="true"
     inkscape:window-width="1512"
     inkscape:window-height="1198"
     inkscape:window-x="208"
     inkscape:window-y="155"
     inkscape:window-maximized="0" />
  <metadata
     id="metadata162">
    <rdf:RDF>
      <cc:Work
         rdf:about="">
        <dc:format>image/svg+xml</dc:format>
        <dc:type
           rdf:resource="http://purl.org/dc/dcmitype/StillImage" />
        <dc:title></dc:title>
      </cc:Work>
    </rdf:RDF>
  </metadata>
  <g
     inkscape:label="Layer 1"
     inkscape:groupmode="layer"
     id="layer1">
    <g
       id="g230"
       transform="matrix(0.20634416,0,0,0.20634416,-3.5579999,-1.2305577)">
      <path
         d="m 48.106427,27.099967 c -8.04515,11.50098 -30.20592,7.07847 -28.0761,-13.06902 -3.51185,11.76256 4.60038,23.76412 17.03524,23.76412 10.20176,0 18.47206,-8.26991 18.47206,-18.47195 0,-0.14158 -0.002,-0.28285 -0.006,-0.42366 0.014,-0.0515 0.0204,-0.10709 0.0204,-0.16886 V 8.8666467 c 0,-0.71081 -0.58707,-1.22444 -1.29564,-1.27813 l -0.1901,-0.014 h -3.12688 c -0.71071,0 -1.06165,0.33405 -1.06165,1.0445 V 18.826817 c 0,2.48435 0.10409,5.59157 -1.772,8.27371"
         style="fill:#7b7979;fill-opacity:1;fill-rule:evenodd;stroke:none;stroke-width:0.893416"
         id="path246-2-8"
         inkscape:connector-curvature="0"
         inkscape:export-filename="G:\Users\suitedoalex\sites\unicesumar-logo-4.png"
         inkscape:export-xdpi="104.8567"
         inkscape:export-ydpi="104.8567" />
      <path
         d="m 41.078357,30.067907 c -7.30201,2.41498 -14.96689,-2.44564 -15.1949,-10.23294 -0.18691,-6.38902 4.84098,-11.7200503 11.23,-11.9069603 3.9642,-0.11592 7.52037,1.77587 9.69377,4.7546003 0.31099,0.23954 0.71035,0.92059 0.875,1.18772 0.0798,0.13016 0.1466,0.24694 0.20035,0.35307 h -3.89451 c -0.52024,-0.67642 -1.15484,-1.3336 -1.98125,-1.89861 -3.58405,-2.4512603 -8.49407,-1.40562 -11.19318,1.88896 -4.89059,5.96919 -1.25614,17.41388 10.26474,15.85416"
         style="fill:#7b7979;fill-opacity:1;fill-rule:evenodd;stroke:none;stroke-width:0.893416"
         id="path248-4-6"
         inkscape:connector-curvature="0"
         inkscape:export-filename="G:\Users\suitedoalex\sites\unicesumar-logo-4.png"
         inkscape:export-xdpi="104.8567"
         inkscape:export-ydpi="104.8567" />
      <path
         d="m 47.985097,24.221817 c 0.0453,-0.0848 0.0828,-0.16104 0.11271,-0.2305 h -3.6387 c -1.15583,2.14276 -3.25124,4.58963 -8.50045,4.74316 -1.64059,0.0479 1.35262,0.73974 3.13734,0.68756 4.50961,-0.13196 5.66471,-3.08007 7.95008,-3.87806 0.31198,-0.1089 0.76654,-1.00178 0.93906,-1.32216"
         style="fill:#7b7979;fill-opacity:1;fill-rule:evenodd;stroke:none;stroke-width:0.893416"
         id="path250-1-4"
         inkscape:connector-curvature="0"
         inkscape:export-filename="G:\Users\suitedoalex\sites\unicesumar-logo-4.png"
         inkscape:export-xdpi="104.8567"
         inkscape:export-ydpi="104.8567" />
      <path
         d="m 40.413387,8.3061067 c -7.43074,-1.98392 -14.7591,3.6941903 -14.53117,11.4815103 0.18691,6.38902 5.51765,11.41689 11.90667,11.22999 4.68008,-0.13717 8.62907,-3.03397 10.33398,-7.08501 -1.74823,2.54286 -4.87304,4.03076 -8.1937,4.12769 -13.94387,0.40777 -15.09771,-18.7441703 -2.42744,-19.8015303 0.80175,-0.0668 1.65016,-0.085 2.56261,0.002 0.11451,0.012 0.23863,0.0248 0.34905,0.0447"
         style="fill:#0b629e;fill-opacity:1;fill-rule:evenodd;stroke:none;stroke-width:0.893416"
         id="path252-7-3"
         inkscape:connector-curvature="0"
         inkscape:export-filename="G:\Users\suitedoalex\sites\unicesumar-logo-4.png"
         inkscape:export-xdpi="104.8567"
         inkscape:export-ydpi="104.8567" />
      <g
         transform="matrix(0.8934183,0,0,-0.8934183,-17.954013,510.29247)"
         id="g254-4-1"
         inkscape:export-filename="G:\Users\suitedoalex\sites\unicesumar-logo-4.png"
         inkscape:export-xdpi="104.8567"
         inkscape:export-ydpi="104.8567">
        <g
           id="g256-1-7">
          <g
             id="g262-5-5">
            <path
               d="m 62.4779,555.4341 c 3.2391,0 5.8648,-2.6258 5.8648,-5.8649 0,-3.2389 -2.6257,-5.8646 -5.8648,-5.8646 -3.2389,0 -5.8646,2.6257 -5.8646,5.8646 0,3.2391 2.6257,5.8649 5.8646,5.8649"
               style="fill:url(#radialGradient270-0-0);fill-rule:evenodd;stroke:none"
               id="path272-9-8"
               inkscape:connector-curvature="0" />
          </g>
        </g>
      </g>
      <path
         d="m 55.512777,13.767587 c 0.0407,4.49691 0.32896,8.25016 -1.03833,11.93705 -2.55883,6.89979 -9.15556,12.0907 -17.33337,12.0907 -10.20178,0 -18.35797,-8.26438 -18.35797,-18.4664 l 8.8e-4,-1.96294 V 8.6333867 c 0,-0.68454 0.35782,-1.07158 1.04234,-1.07158 h 3.41689 c 0.68462,0 1.24506,0.56025 1.24506,1.24507 0,5.3069003 0,5.7297603 0,11.0369303 0.13637,2.95522 0.58063,4.16599 1.05094,5.22944 6.24194,11.14938 22.16519,10.62364 27.65923,0.37629 1.78694,-3.33279 2.19827,-7.93971 2.31451,-11.68195"
         style="fill:#0b629e;fill-opacity:1;fill-rule:evenodd;stroke:none;stroke-width:0.893416"
         id="path274-8-3"
         inkscape:connector-curvature="0"
         inkscape:export-filename="G:\Users\suitedoalex\sites\unicesumar-logo-4.png"
         inkscape:export-xdpi="104.8567"
         inkscape:export-ydpi="104.8567" />
      <path
         d="m 48.192287,23.889027 c -4.57351,6.65442 -15.49955,5.57635 -18.67869,-1.8743 -1.23864,-2.90353 -1.1804,-6.36606 0.3361,-9.15692 0.80685,-1.48529 2.00073,-2.70267 3.60629,-3.5206903 1.01198,-0.51505 2.1818,-0.89522 3.52703,-1.06031 0.7995,-0.0981 2.65972,-0.17729 3.43386,0.0293 -1.01528,-0.15021 -2.39527,-0.082 -3.39912,0.0762 -2.74172,0.43278 -4.94781,1.7765703 -6.34352,3.8481503 -1.70538,2.53122 -2.20326,6.15173 -0.73163,9.60157 3.18388,7.46207 13.18462,7.65909 18.24968,2.0569"
         style="fill:#e9e9e9;fill-opacity:1;fill-rule:nonzero;stroke:none;stroke-width:0.893416"
         id="path276-4-3"
         inkscape:connector-curvature="0"
         inkscape:export-filename="G:\Users\suitedoalex\sites\unicesumar-logo-4.png"
         inkscape:export-xdpi="104.8567"
         inkscape:export-ydpi="104.8567" />
      <g
         transform="matrix(0.8934183,0,0,-0.8934183,-17.954013,510.29247)"
         id="g278-5-6"
         inkscape:export-filename="G:\Users\suitedoalex\sites\unicesumar-logo-4.png"
         inkscape:export-xdpi="104.8567"
         inkscape:export-ydpi="104.8567">
        <g
           id="g280-2-6">
          <g
             id="g286-7-2">
            <path
               d="m 47.088,561.5215 c 0.0652,-10.8321 -1.7872,-21.4676 10.1639,-26.6548 4.7829,-2.0758 9.9057,-2.1466 14.7226,-0.0938 12.0498,5.1355 10.3686,16.024 10.385,26.7534 0.0011,0.8396 -0.5227,1.1897 -1.8584,1.1636 1.0074,-0.0329 0.9283,-0.9992 0.9298,-1.1679 0.0564,-6.4224 0.7574,-12.954 -1.4806,-18.1652 -1.3218,-2.6022 -3.2113,-4.7605 -5.4629,-6.3354 -0.8447,-0.5375 -1.7864,-1.0338 -2.8392,-1.4826 -4.6482,-1.9808 -9.4093,-1.9346 -14.0771,0.091 -11.5648,5.0196 -9.6401,15.4423 -9.6097,25.8922 -0.025,0.6098 -0.2322,1.1617 -1.8905,1.1824 0.6639,-0.0289 1.016,-0.4235 1.0171,-1.1829"
               style="fill:url(#linearGradient1447);stroke:none"
               id="path294-8-8"
               inkscape:connector-curvature="0" />
          </g>
        </g>
      </g>
      <path
         d="m 75.946617,31.640197 c -2.95412,0.77904 -10.03774,1.42623 -12.23445,-1.07677 -1.02248,-1.16574 -1.29311,-2.78785 -1.29311,-4.33471 v -12.01489 h 4.01379 v 11.57294 c 0,3.24735 2.413,3.75093 5.49999,3.34848 v -14.7902 h 4.01378 z"
         style="fill:#7b7979;fill-opacity:1;fill-rule:nonzero;stroke:none;stroke-width:1.23459"
         id="path296-5-5-0"
         inkscape:connector-curvature="0"
         inkscape:export-filename="G:\Users\suitedoalex\sites\unicesumar-logo-4.png"
         inkscape:export-xdpi="104.8567"
         inkscape:export-ydpi="104.8567" />
      <path
         d="m 77.906037,19.606757 c 0.62226,-0.18029 1.42436,-0.34791 2.40674,-0.50322 0.98238,-0.15563 2.01362,-0.23346 3.09437,-0.23346 1.0967,0 2.00944,0.14359 2.73808,0.42978 0.7283,0.28667 1.30573,0.69188 1.73129,1.21581 0.42555,0.52386 0.72864,1.14571 0.90852,1.86634 0.18029,0.72014 0.27014,1.52238 0.27014,2.40636 v 7.29395 h -3.65922 v -6.85159 c 0,-1.17906 -0.15543,-2.01375 -0.46654,-2.50516 -0.31077,-0.4912 -0.892,-0.73666 -1.7435,-0.73666 -0.26212,0 -0.54027,0.012 -0.83497,0.0367 -0.29469,0.0245 -0.55679,0.0534 -0.78568,0.086 v 9.97055 h -3.65923 z"
         style="fill:#7b7979;fill-opacity:1;fill-rule:nonzero;stroke:none;stroke-width:1.23459"
         id="path298-77-5-5"
         inkscape:connector-curvature="0"
         inkscape:export-filename="G:\Users\suitedoalex\sites\unicesumar-logo-4.png"
         inkscape:export-xdpi="104.8567"
         inkscape:export-ydpi="104.8567" />
      <path
         d="m 94.551327,32.082317 h -3.65919 v -12.91755 h 3.65919 z m 0.34372,-16.65023 c 0,0.67114 -0.21706,1.19893 -0.651,1.58389 -0.43359,0.38459 -0.94522,0.57718 -1.53461,0.57718 -0.58926,0 -1.10088,-0.19273 -1.53483,-0.57718 -0.43395,-0.38496 -0.65063,-0.91275 -0.65063,-1.58389 0,-0.67122 0.21668,-1.19939 0.65063,-1.58396 0.43395,-0.38494 0.94557,-0.57704 1.53483,-0.57704 0.58939,0 1.10102,0.19212 1.53461,0.57704 0.43394,0.38457 0.651,0.91274 0.651,1.58396"
         style="fill:#7b7979;fill-opacity:1;fill-rule:nonzero;stroke:none;stroke-width:1.23459"
         id="path300-2-8-1"
         inkscape:connector-curvature="0"
         inkscape:export-filename="G:\Users\suitedoalex\sites\unicesumar-logo-4.png"
         inkscape:export-xdpi="104.8567"
         inkscape:export-ydpi="104.8567" />
      <path
         d="m 104.84759,32.425917 c -2.76671,0 -4.874543,-0.76951 -6.323453,-2.30835 -1.44881,-1.53879 -2.17326,-3.7246 -2.17326,-6.5569 0,-1.40831 0.22087,-2.66461 0.66286,-3.76983 0.44197,-1.10482 1.04779,-2.03816 1.81733,-2.79931 0.76951,-0.76127 1.686063,-1.33869 2.750403,-1.73127 1.06424,-0.3931 2.21832,-0.58939 3.46282,-0.58939 0.72025,0 1.37507,0.0533 1.96434,0.15963 0.58976,0.10629 1.10522,0.22927 1.54719,0.36815 0.44199,0.13918 0.81052,0.28236 1.10521,0.42976 0.29469,0.14761 0.50743,0.26212 0.63867,0.34398 l -1.10521,3.09401 c -0.52384,-0.27816 -1.13385,-0.51545 -1.82956,-0.71213 -0.69605,-0.19614 -1.48595,-0.29469 -2.36992,-0.29469 -0.58939,0 -1.16644,0.0983 -1.73127,0.29469 -0.56482,0.19654 -1.06423,0.51162 -1.49819,0.94559 -0.43371,0.43395 -0.78148,0.99459 -1.0436,1.68225 -0.26186,0.68767 -0.39272,1.52238 -0.39272,2.50509 0,0.78558 0.0856,1.51807 0.25755,2.19771 0.17227,0.67927 0.4505,1.26485 0.83507,1.75586 0.38495,0.49094 0.88818,0.88013 1.5104,1.16629 0.62223,0.28669 1.3751,0.42976 2.25944,0.42976 0.55641,0 1.05582,-0.0325 1.49779,-0.0979 0.44199,-0.0658 0.83497,-0.14359 1.17867,-0.23348 0.34409,-0.0898 0.64679,-0.19253 0.90891,-0.3069 0.26174,-0.11491 0.49939,-0.22113 0.71214,-0.31916 l 1.05579,3.06958 c -0.54024,0.32754 -1.30149,0.62223 -2.28386,0.88395 -0.98225,0.26214 -2.12006,0.39297 -3.41354,0.39297"
         style="fill:#0b4f84;fill-opacity:1;fill-rule:nonzero;stroke:none;stroke-width:1.23459"
         id="path302-6-4-6"
         inkscape:connector-curvature="0"
         inkscape:export-filename="G:\Users\suitedoalex\sites\unicesumar-logo-4.png"
         inkscape:export-xdpi="104.8567"
         inkscape:export-ydpi="104.8567" />
      <path
         d="m 110.26783,25.721707 c 0,-1.1462 0.17608,-2.14883 0.52817,-3.00835 0.35173,-0.85952 0.81434,-1.57582 1.38718,-2.14877 0.57322,-0.57285 1.23188,-1.00684 1.97697,-1.30153 0.74506,-0.29459 1.51052,-0.44235 2.2961,-0.44235 1.83384,0 3.28266,0.56099 4.34688,1.68261 1.06433,1.1214 1.59619,2.7707 1.59619,4.94815 0,0.21284 -0.008,0.44631 -0.0245,0.7 -0.0161,0.25372 -0.0331,0.47875 -0.0493,0.67543 h -8.30039 c 0.0818,0.75313 0.43395,1.35053 1.05578,1.7925 0.62227,0.44197 1.45732,0.66312 2.50513,0.66312 0.67115,0 1.33015,-0.0614 1.97684,-0.18391 0.64682,-0.12294 1.17486,-0.27429 1.58399,-0.45418 l 0.49139,2.97117 c -0.19655,0.0983 -0.45842,0.19653 -0.7861,0.29507 -0.32752,0.0979 -0.69186,0.1841 -1.09248,0.25754 -0.40148,0.074 -0.83124,0.13497 -1.28967,0.18431 -0.45816,0.0489 -0.91656,0.0736 -1.37496,0.0736 -1.16263,0 -2.17339,-0.17187 -3.0328,-0.51543 -0.85951,-0.34409 -1.57174,-0.81472 -2.13694,-1.41214 -0.56446,-0.59778 -0.98201,-1.3057 -1.25211,-2.12461 -0.27026,-0.8183 -0.40533,-1.70263 -0.40533,-2.65203 z m 8.59511,-1.3999 c -0.0161,-0.31075 -0.0696,-0.61386 -0.15943,-0.90855 -0.09,-0.29457 -0.22927,-0.55667 -0.41755,-0.78593 -0.18831,-0.22927 -0.42557,-0.41755 -0.71223,-0.56483 -0.28619,-0.14701 -0.64248,-0.22087 -1.06805,-0.22087 -0.40952,0 -0.76151,0.0696 -1.0562,0.20863 -0.29468,0.13918 -0.54036,0.32335 -0.73668,0.5525 -0.19614,0.22925 -0.3479,0.49518 -0.4542,0.79829 -0.1063,0.30269 -0.18391,0.61001 -0.23344,0.92076 z"
         style="fill:#0b4f84;fill-opacity:1;fill-rule:nonzero;stroke:none;stroke-width:1.23459"
         id="path304-4-4-7"
         inkscape:connector-curvature="0"
         inkscape:export-filename="G:\Users\suitedoalex\sites\unicesumar-logo-4.png"
         inkscape:export-xdpi="104.8567"
         inkscape:export-ydpi="104.8567" />
      <path
         d="m 127.95017,29.454347 c 0.67114,0 1.1457,-0.0654 1.42437,-0.19634 0.27814,-0.13096 0.4174,-0.38494 0.4174,-0.76111 0,-0.29505 -0.1803,-0.55259 -0.54024,-0.77382 -0.36051,-0.22113 -0.90892,-0.47063 -1.6456,-0.74893 -0.57285,-0.21269 -1.09285,-0.43397 -1.55941,-0.6632 -0.46656,-0.22913 -0.86337,-0.50322 -1.19089,-0.82276 -0.3273,-0.31912 -0.58138,-0.69984 -0.76127,-1.14187 -0.18029,-0.44197 -0.27012,-0.97395 -0.27012,-1.59618 0,-1.21164 0.45001,-2.16906 1.35052,-2.87326 0.9004,-0.70409 2.13646,-1.0562 3.70823,-1.0562 0.78594,0 1.53917,0.0698 2.2593,0.20902 0.72026,0.13918 1.29349,0.29038 1.71906,0.4542 l -0.63866,2.8487 c -0.42556,-0.14721 -0.88793,-0.27817 -1.38732,-0.39262 -0.49939,-0.11492 -1.06003,-0.17227 -1.68225,-0.17227 -1.14609,0 -1.71906,0.31953 -1.71906,0.95781 0,0.1474 0.0247,0.27828 0.0738,0.39307 0.0489,0.11452 0.147,0.22496 0.29469,0.33137 0.14741,0.10629 0.34793,0.22125 0.60161,0.34368 0.25372,0.12695 0.57705,0.26214 0.97016,0.40943 0.80212,0.2989 1.46522,0.58941 1.98918,0.88015 0.52384,0.28631 0.93717,0.60159 1.2399,0.93308 0.30309,0.33556 0.51582,0.70828 0.63865,1.11744 0.12254,0.40937 0.18391,0.87976 0.18391,1.42014 0,1.27275 -0.47876,2.23906 -1.43656,2.89377 -0.95793,0.65063 -2.3125,0.97817 -4.06453,0.97817 -1.1457,0 -2.09944,-0.0983 -2.86055,-0.29469 -0.76151,-0.19614 -1.28964,-0.35999 -1.58436,-0.49101 l 0.6142,-2.97155 c 0.62189,0.2457 1.26066,0.43792 1.91537,0.57717 0.65482,0.13898 1.3015,0.20853 1.94027,0.20853"
         style="fill:#0b4f84;fill-opacity:1;fill-rule:nonzero;stroke:none;stroke-width:1.23459"
         id="path306-0-1-6"
         inkscape:connector-curvature="0"
         inkscape:export-filename="G:\Users\suitedoalex\sites\unicesumar-logo-4.png"
         inkscape:export-xdpi="104.8567"
         inkscape:export-ydpi="104.8567" />
      <path
         d="m 145.86586,31.640197 c -0.62225,0.17989 -1.42435,0.3479 -2.40672,0.50336 -0.98237,0.15523 -2.01374,0.23332 -3.09436,0.23332 -1.09683,0 -2.00957,-0.1476 -2.73809,-0.44197 -0.7283,-0.29471 -1.30584,-0.70828 -1.73127,-1.24026 -0.42557,-0.53198 -0.72868,-1.16646 -0.90855,-1.90348 -0.1803,-0.73632 -0.27025,-1.54686 -0.27025,-2.43117 v -7.19523 h 3.65932 v 6.75322 c 0,1.17905 0.15523,2.03019 0.46644,2.554 0.31112,0.52398 0.89212,0.78606 1.7435,0.78606 0.26184,0 0.54036,-0.012 0.83507,-0.0367 0.29469,-0.0248 0.55643,-0.0536 0.7857,-0.086 v -9.97047 h 3.65921 z"
         style="fill:#0b4f84;fill-opacity:1;fill-rule:nonzero;stroke:none;stroke-width:1.23459"
         id="path308-0-0-8"
         inkscape:connector-curvature="0"
         inkscape:export-filename="G:\Users\suitedoalex\sites\unicesumar-logo-4.png"
         inkscape:export-xdpi="104.8567"
         inkscape:export-ydpi="104.8567" />
      <path
         d="m 154.92248,25.230727 c 0,-1.17906 -0.15121,-2.01375 -0.45422,-2.50516 -0.30274,-0.4912 -0.82236,-0.73666 -1.55942,-0.73666 -0.22927,0 -0.46656,0.012 -0.71221,0.0367 -0.2457,0.0245 -0.48287,0.0534 -0.71214,0.086 v 9.97055 h -3.65919 v -12.47552 c 0.31147,-0.0818 0.67545,-0.16766 1.09285,-0.25791 0.41753,-0.09 0.85988,-0.17187 1.32644,-0.24531 0.46644,-0.074 0.94521,-0.13116 1.43658,-0.17187 0.49099,-0.0413 0.97397,-0.0616 1.44879,-0.0616 0.9331,0 1.69042,0.11872 2.27165,0.35593 0.581,0.23766 1.06001,0.52003 1.43659,0.84757 0.52395,-0.37682 1.12546,-0.67153 1.8051,-0.88435 0.67927,-0.21272 1.30545,-0.31915 1.87866,-0.31915 1.03127,0 1.87857,0.14359 2.54145,0.42975 0.66318,0.28669 1.19122,0.69189 1.58394,1.21584 0.39298,0.52384 0.66312,1.14572 0.81052,1.86634 0.14721,0.72013 0.22113,1.52237 0.22113,2.40632 v 7.29398 h -3.65922 v -6.85161 c 0,-1.17903 -0.15121,-2.01376 -0.4542,-2.50513 -0.30275,-0.4912 -0.82288,-0.73666 -1.55956,-0.73666 -0.19634,0 -0.47063,0.0489 -0.82271,0.14741 -0.35201,0.0981 -0.64249,0.2211 -0.87176,0.36814 0.11452,0.37692 0.18832,0.77371 0.22121,1.19127 0.0325,0.41752 0.0489,0.86373 0.0489,1.33829 v 7.04829 h -3.65919 z"
         style="fill:#0b4f84;fill-opacity:1;fill-rule:nonzero;stroke:none;stroke-width:1.23459"
         id="path310-9-6-1"
         inkscape:connector-curvature="0"
         inkscape:export-filename="G:\Users\suitedoalex\sites\unicesumar-logo-4.png"
         inkscape:export-xdpi="104.8567"
         inkscape:export-ydpi="104.8567" />
      <path
         d="m 172.61777,29.528187 c 0.36001,0 0.70409,-0.008 1.03123,-0.0248 0.3277,-0.0161 0.58942,-0.0407 0.7861,-0.0736 v -2.77489 c -0.14721,-0.0331 -0.36852,-0.0658 -0.66324,-0.0983 -0.29471,-0.0329 -0.56484,-0.0493 -0.81051,-0.0493 -0.34358,0 -0.66705,0.0207 -0.96978,0.0616 -0.30299,0.0409 -0.569,0.11873 -0.79817,0.23349 -0.22926,0.11431 -0.40948,0.27026 -0.54038,0.46655 -0.13096,0.19634 -0.19634,0.44198 -0.19634,0.73668 0,0.57322 0.19253,0.97002 0.57705,1.19089 0.38463,0.22123 0.91278,0.33173 1.58402,0.33173 z m -0.29471,-10.70748 c 1.08026,0 1.98078,0.12333 2.70131,0.36852 0.72024,0.2457 1.29728,0.59779 1.73125,1.0562 0.43397,0.45852 0.74087,1.01495 0.92113,1.67002 0.17989,0.65484 0.2699,1.38312 0.2699,2.18562 v 7.61273 c -0.52398,0.11472 -1.25224,0.24951 -2.18558,0.40521 -0.9334,0.15543 -2.06303,0.23345 -3.38898,0.23345 -0.83472,0 -1.59202,-0.074 -2.27168,-0.22123 -0.67927,-0.14721 -1.26469,-0.38879 -1.7557,-0.72435 -0.491,-0.3357 -0.8679,-0.77382 -1.12976,-1.31386 -0.2621,-0.54024 -0.39296,-1.20348 -0.39296,-1.98918 0,-0.75308 0.15162,-1.39175 0.45419,-1.91571 0.30309,-0.52382 0.70844,-0.941 1.21583,-1.25251 0.50744,-0.31072 1.08875,-0.53604 1.74347,-0.67506 0.65483,-0.13918 1.3345,-0.20889 2.03819,-0.20889 0.47494,0 0.89657,0.0207 1.26485,0.0616 0.3684,0.0409 0.66731,0.0941 0.89658,0.15944 v -0.34356 c 0,-0.62223 -0.18832,-1.12164 -0.56483,-1.49817 -0.37657,-0.37655 -1.03139,-0.56483 -1.96475,-0.56483 -0.62223,0 -1.23607,0.0449 -1.84189,0.13517 -0.60566,0.0899 -1.12965,0.21691 -1.57162,0.38074 l -0.46655,-2.9471 c 0.21286,-0.0654 0.47879,-0.13497 0.79791,-0.20887 0.31925,-0.0736 0.66743,-0.13898 1.04396,-0.19634 0.37657,-0.0574 0.77346,-0.10629 1.19088,-0.14741 0.41757,-0.0409 0.83926,-0.0616 1.26485,-0.0616"
         style="fill:#0b4f84;fill-opacity:1;fill-rule:nonzero;stroke:none;stroke-width:1.23459"
         id="path312-0-4-5"
         inkscape:connector-curvature="0"
         inkscape:export-filename="G:\Users\suitedoalex\sites\unicesumar-logo-4.png"
         inkscape:export-xdpi="104.8567"
         inkscape:export-ydpi="104.8567" />
      <path
         d="m 187.73399,22.406457 c -0.32754,-0.0818 -0.71211,-0.16786 -1.15409,-0.25791 -0.44209,-0.0898 -0.91693,-0.13517 -1.42434,-0.13517 -0.22929,0 -0.50358,0.0207 -0.82284,0.0616 -0.31915,0.0407 -0.56066,0.0856 -0.72437,0.13457 v 9.87258 h -3.65919 v -12.22987 c 0.65507,-0.22927 1.42852,-0.4462 2.32092,-0.65088 0.89197,-0.20486 1.88672,-0.30692 2.9834,-0.30692 0.19654,0 0.43394,0.0121 0.7122,0.0369 0.27854,0.0245 0.55683,0.057 0.83497,0.0981 0.27866,0.0409 0.55683,0.0902 0.83509,0.1472 0.27854,0.0574 0.5158,0.12695 0.71211,0.20889 z"
         style="fill:#0b4f84;fill-opacity:1;fill-rule:nonzero;stroke:none;stroke-width:1.23459"
         id="path314-0-3-6"
         inkscape:connector-curvature="0"
         inkscape:export-filename="G:\Users\suitedoalex\sites\unicesumar-logo-4.png"
         inkscape:export-xdpi="104.8567"
         inkscape:export-ydpi="104.8567" />
    </g>
  </g>
</svg>
